<svg width="64" height="64" viewBox="0 0 64 64" fill="none" xmlns="http://www.w3.org/2000/svg">
<!-- Shadow -->
<ellipse cx="32" cy="58" rx="14" ry="4" fill="#C1DBF6"/>
<!-- ID card body -->
<path d="M8 24L32 10L56 24V48L32 62L8 48V24Z" fill="white"/>
<path d="M32 38L56 24V48L32 62V38Z" fill="#FBDBD0"/>
<path d="M8 24L32 38V62L8 48V24Z" fill="#C1DBF6"/>
<path d="M8 24L32 10L56 24L32 38L8 24Z" fill="white"/>
<!-- Photo placeholder (on top face) -->
<rect x="16" y="18" width="10" height="12" rx="1" transform="skewX(-15) skewY(5)" fill="#C1DBF6" stroke="#374874" stroke-width="0.8"/>
<!-- Person icon in photo -->
<circle cx="22" cy="21" r="2.5" fill="white" stroke="#374874" stroke-width="0.6"/>
<path d="M18 28C18 25.5 19.8 24 22 24C24.2 24 26 25.5 26 28" stroke="#374874" stroke-width="0.6" fill="white"/>
<!-- Text lines (name, info) -->
<line x1="30" y1="18" x2="44" y2="24" stroke="#374874" stroke-width="1" stroke-linecap="round"/>
<line x1="30" y1="21" x2="40" y2="26.5" stroke="#374874" stroke-width="0.7" stroke-linecap="round" opacity="0.5"/>
<line x1="30" y1="24" x2="38" y2="28.5" stroke="#374874" stroke-width="0.7" stroke-linecap="round" opacity="0.3"/>
<!-- Card chip on right face -->
<rect x="40" y="36" width="5" height="4" rx="0.5" fill="white" stroke="#374874" stroke-width="0.6"/>
<line x1="41" y1="38" x2="44" y2="38" stroke="#374874" stroke-width="0.4"/>
<!-- Badge/stamp -->
<circle cx="46" cy="18" r="4" fill="#FBDBD0" stroke="#374874" stroke-width="0.8"/>
<path d="M44 18L45.5 19.5L48.5 16.5" stroke="#374874" stroke-width="1" stroke-linecap="round" stroke-linejoin="round"/>
<!-- Barcode on left face -->
<line x1="14" y1="38" x2="14" y2="44" stroke="#374874" stroke-width="0.8"/>
<line x1="16" y1="39" x2="16" y2="45" stroke="#374874" stroke-width="0.5"/>
<line x1="17.5" y1="39.5" x2="17.5" y2="45.5" stroke="#374874" stroke-width="0.8"/>
<line x1="19.5" y1="40.5" x2="19.5" y2="46.5" stroke="#374874" stroke-width="0.5"/>
<line x1="21" y1="41" x2="21" y2="47" stroke="#374874" stroke-width="1"/>
<line x1="23" y1="42" x2="23" y2="48" stroke="#374874" stroke-width="0.5"/>
<!-- Outline -->
<path d="M8 24L32 10L56 24V48L32 62L8 48V24Z" stroke="#374874" stroke-width="1.2" fill="none" stroke-linejoin="round"/>
<path d="M8 24L32 38L56 24" stroke="#374874" stroke-width="1.2" fill="none" stroke-linejoin="round"/>
<path d="M32 38V62" stroke="#374874" stroke-width="1.2"/>
</svg>
