<svg width="64" height="64" viewBox="0 0 64 64" fill="none" xmlns="http://www.w3.org/2000/svg">
<!-- Shadow -->
<ellipse cx="32" cy="58" rx="14" ry="4" fill="#C1DBF6"/>
<!-- Storage box body -->
<path d="M10 24L32 12L54 24V48L32 60L10 48V24Z" fill="white"/>
<path d="M32 36L54 24V48L32 60V36Z" fill="#FBDBD0"/>
<path d="M10 24L32 36V60L10 48V24Z" fill="#C1DBF6"/>
<path d="M10 24L32 12L54 24L32 36L10 24Z" fill="white"/>
<!-- Box lid (slightly open) -->
<path d="M10 24L32 12L54 24L32 20L10 24Z" fill="white" stroke="#374874" stroke-width="0.8"/>
<!-- Drawer lines -->
<path d="M10 34L32 46L54 34" stroke="#374874" stroke-width="0.8" opacity="0.4"/>
<path d="M10 42L32 54L54 42" stroke="#374874" stroke-width="0.8" opacity="0.4"/>
<!-- Handle on front-left -->
<path d="M18 40L24 43.5" stroke="#374874" stroke-width="1.5" stroke-linecap="round"/>
<!-- Handle on front-right -->
<path d="M40 40L46 37" stroke="#374874" stroke-width="1.5" stroke-linecap="round"/>
<!-- Lock -->
<rect x="29" y="33" width="6" height="5" rx="1" fill="white" stroke="#374874" stroke-width="0.8"/>
<path d="M30.5 33V31C30.5 29.5 31.2 28.5 32 28.5C32.8 28.5 33.5 29.5 33.5 31V33" stroke="#374874" stroke-width="0.8" fill="none"/>
<circle cx="32" cy="35.5" r="1" fill="#374874"/>
<!-- Item peeking out (bottle shape) -->
<path d="M26 14L26 18C26 19 27 20 28 20L28 12C27 12 26 13 26 14Z" fill="#FBDBD0" stroke="#374874" stroke-width="0.6"/>
<line x1="27" y1="10" x2="27" y2="12" stroke="#374874" stroke-width="0.8"/>
<!-- Item peeking out (small box) -->
<rect x="36" y="11" width="5" height="5" rx="0.5" fill="#C1DBF6" stroke="#374874" stroke-width="0.6"/>
<!-- Outline -->
<path d="M10 24L32 12L54 24V48L32 60L10 48V24Z" stroke="#374874" stroke-width="1.2" fill="none" stroke-linejoin="round"/>
<path d="M10 24L32 36L54 24" stroke="#374874" stroke-width="1.2" fill="none" stroke-linejoin="round"/>
<path d="M32 36V60" stroke="#374874" stroke-width="1.2"/>
</svg>
