<svg width="64" height="64" viewBox="0 0 64 64" fill="none" xmlns="http://www.w3.org/2000/svg">
<!-- Shadow -->
<ellipse cx="32" cy="58" rx="14" ry="4" fill="#C1DBF6"/>
<!-- Card body -->
<path d="M8 26L32 12L56 26V46L32 60L8 46V26Z" fill="white"/>
<path d="M32 40L56 26V46L32 60V40Z" fill="#FBDBD0"/>
<path d="M8 26L32 40V60L8 46V26Z" fill="#C1DBF6"/>
<path d="M8 26L32 12L56 26L32 40L8 26Z" fill="white"/>
<!-- Star (centered on top face) -->
<path d="M32 18L34.5 24L41 24.8L36 29.2L37.5 35.5L32 32L26.5 35.5L28 29.2L23 24.8L29.5 24L32 18Z" fill="#FBDBD0" stroke="#374874" stroke-width="1" stroke-linejoin="round"/>
<!-- Card decoration lines -->
<line x1="15" y1="38" x2="25" y2="44" stroke="#374874" stroke-width="0.8" stroke-linecap="round" opacity="0.5"/>
<line x1="15" y1="41" x2="23" y2="46" stroke="#374874" stroke-width="0.6" stroke-linecap="round" opacity="0.3"/>
<!-- Points dots on right face -->
<circle cx="40" cy="38" r="1.2" fill="#374874" opacity="0.5"/>
<circle cx="44" cy="36" r="1.2" fill="#374874" opacity="0.5"/>
<circle cx="48" cy="34" r="1.2" fill="#374874" opacity="0.5"/>
<!-- Outline -->
<path d="M8 26L32 12L56 26V46L32 60L8 46V26Z" stroke="#374874" stroke-width="1.2" fill="none" stroke-linejoin="round"/>
<path d="M8 26L32 40L56 26" stroke="#374874" stroke-width="1.2" fill="none" stroke-linejoin="round"/>
<path d="M32 40V60" stroke="#374874" stroke-width="1.2"/>
</svg>
