<svg width="64" height="64" viewBox="0 0 64 64" fill="none" xmlns="http://www.w3.org/2000/svg">
<!-- Shadow ellipse -->
<ellipse cx="32" cy="58" rx="14" ry="4" fill="#C1DBF6"/>
<!-- Card base (isometric) -->
<path d="M12 28L32 17L52 28V48L32 59L12 48V28Z" fill="white"/>
<path d="M32 17L52 28V48L32 59V38L12 28L32 17Z" fill="white"/>
<path d="M32 38L52 28V48L32 59V38Z" fill="#FBDBD0"/>
<path d="M12 28L32 38V59L12 48V28Z" fill="#C1DBF6"/>
<!-- Person silhouette (head) -->
<circle cx="32" cy="26" r="5" fill="white" stroke="#374874" stroke-width="1"/>
<!-- Person silhouette (body) -->
<path d="M25 37C25 33.134 28.134 30 32 30C35.866 30 39 33.134 39 37V39L32 43L25 39V37Z" fill="white" stroke="#374874" stroke-width="1"/>
<!-- Card lines -->
<line x1="20" y1="45" x2="30" y2="50" stroke="#374874" stroke-width="1" stroke-linecap="round"/>
<line x1="20" y1="48" x2="27" y2="52" stroke="#374874" stroke-width="0.8" stroke-linecap="round" opacity="0.5"/>
<!-- Card chip -->
<rect x="36" y="44" width="6" height="4" rx="1" transform="rotate(-30 36 44)" fill="#FBDBD0" stroke="#374874" stroke-width="0.6"/>
<!-- Outline -->
<path d="M12 28L32 17L52 28V48L32 59L12 48V28Z" stroke="#374874" stroke-width="1.2" fill="none" stroke-linejoin="round"/>
<path d="M12 28L32 38L52 28" stroke="#374874" stroke-width="1.2" fill="none" stroke-linejoin="round"/>
<path d="M32 38V59" stroke="#374874" stroke-width="1.2"/>
</svg>
