<svg width="64" height="64" viewBox="0 0 64 64" fill="none" xmlns="http://www.w3.org/2000/svg">
<!-- Shadow -->
<ellipse cx="32" cy="58" rx="14" ry="4" fill="#C1DBF6"/>
<!-- Ticket body -->
<path d="M6 26L32 12L58 26V46L32 60L6 46V26Z" fill="white"/>
<path d="M32 40L58 26V46L32 60V40Z" fill="#FBDBD0"/>
<path d="M6 26L32 40V60L6 46V26Z" fill="#C1DBF6"/>
<path d="M6 26L32 12L58 26L32 40L6 26Z" fill="white"/>
<!-- Serrated edge (left notch) -->
<circle cx="14" cy="36" r="3" fill="white" stroke="#374874" stroke-width="0.8"/>
<!-- Serrated edge (right notch) -->
<circle cx="50" cy="36" r="3" fill="white" stroke="#374874" stroke-width="0.8"/>
<!-- Dashed perforation line -->
<line x1="14" y1="33" x2="20" y2="29" stroke="#374874" stroke-width="0.8" stroke-dasharray="2 2"/>
<line x1="20" y1="29" x2="26" y2="25.5" stroke="#374874" stroke-width="0.8" stroke-dasharray="2 2"/>
<line x1="14" y1="39" x2="18" y2="42" stroke="#374874" stroke-width="0.8" stroke-dasharray="2 2"/>
<!-- Percentage symbol -->
<text x="28" y="29" font-size="10" fill="#374874" font-weight="bold" font-family="Arial">%</text>
<!-- Decorative lines on top face -->
<line x1="36" y1="22" x2="48" y2="28" stroke="#374874" stroke-width="0.6" opacity="0.4"/>
<line x1="36" y1="24.5" x2="45" y2="29.5" stroke="#374874" stroke-width="0.6" opacity="0.3"/>
<!-- Stars decoration -->
<path d="M22 20L23 22L25 22.3L23.5 23.7L24 26L22 24.8L20 26L20.5 23.7L19 22.3L21 22L22 20Z" fill="#FBDBD0" stroke="#374874" stroke-width="0.5"/>
<!-- Outline -->
<path d="M6 26L32 12L58 26V46L32 60L6 46V26Z" stroke="#374874" stroke-width="1.2" fill="none" stroke-linejoin="round"/>
<path d="M6 26L32 40L58 26" stroke="#374874" stroke-width="1.2" fill="none" stroke-linejoin="round"/>
<path d="M32 40V60" stroke="#374874" stroke-width="1.2"/>
</svg>
